# xmcd
#
# Track frame offsets: 
#        150
#        11430
#        25694
#        39554
#        55913
#        85888
#        106712
#        122926
#        136153
#        152429
#        169533
#        188346
#        205183
#        224357
#        242443
#        264448
#        279997
#
# Disc length: 4019 seconds
#
# Revision: 0
# Processed by: cddbd v1.5.2PL0 Copyright (c) Steve Scherf et al.
# Submitted via: ExactAudioCopy v0.99pb5
#
DISCID=d00fb111
DTITLE=Willie K - Warehouse Blues
DYEAR=2012
DGENRE=Blues
TTITLE0=Warehouse Blues
TTITLE1=Too Bad
TTITLE2=Crazy It Seems
TTITLE3=Spin U Around
TTITLE4=Heart Aching Blues
TTITLE5=Driving Miss Daisy
TTITLE6=Howling At The Moon
TTITLE7=Easy Little Baby
TTITLE8=Nasty Thing
TTITLE9=Lonely Man
TTITLE10=World Singing The Blues
TTITLE11=Good Thing
TTITLE12=Sweet Loving Woman
TTITLE13=Hookline
TTITLE14=Roll Me Over
TTITLE15=Let The Good Times Roll
TTITLE16=Give It To Me
EXTD=
EXTT0=
EXTT1=
EXTT2=
EXTT3=
EXTT4=
EXTT5=
EXTT6=
EXTT7=
EXTT8=
EXTT9=
EXTT10=
EXTT11=
EXTT12=
EXTT13=
EXTT14=
EXTT15=
EXTT16=
PLAYORDER=
